# xmcd CD database file
#
# Track frame offsets:
#	150
#	12228
#	24082
#	40951
#	53604
#	67674
#	81956
#	98235
#	109616
#	125158
#	138687
#
# Disc length: 1996 seconds
#
# Revision: 0
# Processed by: cddbd v1.5.2PL0 Copyright (c) Steve Scherf et al.
# Submitted via: CDex 1.51
#
DISCID=8807ca0b
DTITLE=Benoit Paradis Trio - Lâche-pas la patate
DYEAR=2009
DGENRE=Jazz
TTITLE0=Donne-moi moins 
TTITLE1=Miettes de Bonheur
TTITLE2=Je fume
TTITLE3=Un petit animal
TTITLE4=K
TTITLE5=Je me suis un petit peu éparpillé
TTITLE6=La patate
TTITLE7=Camping
TTITLE8=Le printemps
TTITLE9=Toute ma vie (All of Me)
TTITLE10=Il faut croire au bonheur
EXTD=YEAR: 2009
EXTT0=
EXTT1=
EXTT2=
EXTT3=
EXTT4=
EXTT5=
EXTT6=
EXTT7=
EXTT8=
EXTT9=
EXTT10=
PLAYORDER=
